# xmcd CD database file
#
# Track frame offsets:
#	150
#	12135
#	25552
#	37310
#	50072
#	64537
#	77932
#	91095
#	103357
#	115707
#	128785
#	138510
#
# Disc length: 2019 seconds
#
# Revision: 0
# Processed by: cddbd v1.4PL0 Copyright (c) Steve Scherf et al.
# Submitted via: CDex 1.40Release
#
DISCID=9d07e10c
DTITLE=Ruth Brown - The Essentials - Ruth Brown
DYEAR=2003
DGENRE=Blues
TTITLE0=So Long
TTITLE1=Teardrops From My Eyes
TTITLE2=I'll Wait For You
TTITLE3=I Know
TTITLE4=5-10-15 Hours
TTITLE5=(Mama) He Treats Your Daughter Mean
TTITLE6=Oh What A Dream
TTITLE7=Mambo Baby
TTITLE8=As Long As I'm Moving
TTITLE9=I Want To Do More
TTITLE10=Lucky Lips
TTITLE11=I Don't Know
EXTD=YEAR: 2003 ID3G: 0
EXTT0=
EXTT1=
EXTT2=
EXTT3=
EXTT4=
EXTT5=
EXTT6=
EXTT7=
EXTT8=
EXTT9=
EXTT10=
EXTT11=
PLAYORDER=
